<svg width="300" height="300" viewBox="0 0 300 300" fill="none" xmlns="http://www.w3.org/2000/svg">
<rect width="300" height="300" fill="url(#paint0_radial_25_14)"/>
<g clip-path="url(#clip0_25_14)">
<path d="M50 54C50 51.7909 51.7909 50 54 50H110C112.209 50 114 51.7909 114 54V114H54C51.7909 114 50 112.209 50 110V54Z" fill="#DC8A78"/>
<path d="M118 54C118 51.7909 119.791 50 122 50H178C180.209 50 182 51.7909 182 54V114H118V54Z" fill="#DF8E1D"/>
<path d="M186 54C186 51.7909 187.791 50 190 50H246C248.209 50 250 51.7909 250 54V110C250 112.209 248.209 114 246 114H186V54Z" fill="#FE640B"/>
<path d="M50 122C50 119.791 51.7909 118 54 118H114V182H54C51.7909 182 50 180.209 50 178V122Z" fill="#DD7878"/>
<rect x="118" y="118" width="64" height="64" rx="4" fill="#40A02B"/>
<path d="M186 118H246C248.209 118 250 119.791 250 122V178C250 180.209 248.209 182 246 182H186V118Z" fill="#E64553"/>
<path d="M50 190C50 187.791 51.7909 186 54 186H114V246C114 248.209 112.209 250 110 250H54C51.7909 250 50 248.209 50 246V190Z" fill="#EA76CB"/>
<path d="M118 186H182V246C182 248.209 180.209 250 178 250H122C119.791 250 118 248.209 118 246V186Z" fill="#8839EF"/>
<path d="M186 186H246C248.209 186 250 187.791 250 190V246C250 248.209 248.209 250 246 250H190C187.791 250 186 248.209 186 246V186Z" fill="#D20F39"/>
</g>
<defs>
<radialGradient id="paint0_radial_25_14" cx="0" cy="0" r="1" gradientUnits="userSpaceOnUse" gradientTransform="translate(150 150) rotate(90) scale(150)">
<stop offset="0.557692" stop-color="#22282B"/>
<stop offset="1" stop-color="#0B0D0E"/>
</radialGradient>
<clipPath id="clip0_25_14">
<rect width="200" height="200" fill="white" transform="translate(50 50)"/>
</clipPath>
</defs>
</svg>
